<?xml version="1.0" encoding="UTF-8"?>
<svg version="1.1" xmlns="http://www.w3.org/2000/svg" width="1500" height="1500">
<path d="M0 0 C5.7558999 1.15117998 11.45728484 2.30231378 17.16796875 3.62109375 C56.70815115 12.6480158 95.84174184 14.31034781 136.26714659 14.27269709 C141.40676407 14.27017612 146.54636367 14.27934486 151.68597412 14.28707886 C160.55569542 14.29901572 169.4253989 14.30422597 178.29512787 14.30496025 C191.14040019 14.30629745 203.98562988 14.32150746 216.83088699 14.34045542 C237.70984385 14.37116163 258.58880179 14.39539231 279.46777344 14.41333008 C281.33479105 14.4149391 281.33479105 14.4149391 283.23952618 14.41658062 C297.14023328 14.4284127 311.0409408 14.43862095 324.94165039 14.44702148 C329.99332683 14.4500962 335.04500327 14.45318487 340.09667969 14.45629883 C341.96683605 14.45744684 341.96683605 14.45744684 343.87477335 14.45861804 C364.69976969 14.47172112 385.52473471 14.49638129 406.34970784 14.53004223 C419.15763868 14.5502538 431.96550243 14.56063252 444.77344933 14.55805302 C453.54578549 14.55701417 462.31806861 14.5667152 471.09038624 14.58469205 C476.14008785 14.59468289 481.18967204 14.59992349 486.23937988 14.59192467 C490.87516118 14.58466901 495.51071516 14.59149795 500.14646783 14.60881007 C501.80937854 14.61264542 503.47231055 14.61160465 505.13521156 14.60475319 C546.00017444 14.44993481 584.14768719 27.83018469 614 56 C614.81082031 56.73476563 615.62164063 57.46953125 616.45703125 58.2265625 C634.35197973 75.07881319 645.26705755 98.48773968 646.203125 123.12109375 C646.75164771 153.03455564 636.01625273 178.25033042 617 201 C616.4946875 201.60779297 615.989375 202.21558594 615.46875 202.84179688 C613.89774046 204.7073707 612.29947133 206.54476422 610.6875 208.375 C609.95019653 209.2424585 609.95019653 209.2424585 609.19799805 210.12744141 C607.76171875 211.7109375 607.76171875 211.7109375 605 214 C601.02076855 214.06112491 598.26793391 212.14749943 595 210 C595.49628906 209.05382812 595.99257813 208.10765625 596.50390625 207.1328125 C610.80791182 179.47107725 620.73816241 148.00871843 611.39453125 116.86328125 C607.78526235 106.31041512 602.53378392 96.26688504 595 88 C594.28457031 87.19304687 593.56914063 86.38609375 592.83203125 85.5546875 C572.36516707 63.71891397 541.15834003 53.86077754 512 52 C506.19849318 51.83868757 500.39842153 51.81520043 494.5949707 51.79467773 C492.83146282 51.78494547 491.06795719 51.77479912 489.30445385 51.76427555 C484.61026853 51.73739364 479.916074 51.7161294 475.22185516 51.69608307 C470.80620933 51.67635955 466.39059803 51.65149733 461.97497559 51.6270752 C449.08750988 51.55875733 436.20000185 51.49862152 423.3125 51.4375 C394.499375 51.293125 365.68625 51.14875 336 51 C336 121.29 336 191.58 336 264 C384.67245389 243.1403769 415.49491576 204.54436977 435.15722656 156.15185547 C444.95921584 131.13661919 450.67594873 105.45449992 455 79 C455.3327913 76.99990974 455.66597687 74.99988491 456 73 C463.37911968 72.94869431 470.75819228 72.91401627 478.13745117 72.89013672 C480.64039834 72.88016674 483.14333414 72.86658591 485.64624023 72.84912109 C517.43850396 72.63306334 548.80487254 75.24682985 574 97 C575.13888672 97.97839844 575.13888672 97.97839844 576.30078125 98.9765625 C581.70331068 103.94727341 581.70331068 103.94727341 582.890625 108.16015625 C583.03074686 113.07943431 581.87463969 116.83340821 580.25 121.4375 C579.93925537 122.34056885 579.62851074 123.2436377 579.30834961 124.17407227 C564.56362271 165.66422349 538.71513747 202.76123644 504 230 C503.04996094 230.77859375 502.09992188 231.5571875 501.12109375 232.359375 C467.61042985 259.23638257 428.66818179 269.89363806 387 276 C388.02262939 276.17221069 388.02262939 276.17221069 389.06591797 276.34790039 C440.30127229 285.09800637 486.88235747 301.41234756 525.20703125 337.39453125 C527.74003454 339.75748677 530.32595905 342.03738945 532.9375 344.3125 C543.82892214 354.12176161 553.22987137 365.29101586 562 377 C562.41314453 377.5455957 562.82628906 378.09119141 563.25195312 378.65332031 C577.11857307 397.057907 587.68862012 417.46146767 598 438 C598.42909668 438.84884766 598.85819336 439.69769531 599.30029297 440.57226562 C611.44924404 464.75810198 620.23678902 490.21725187 628.64897156 515.87599182 C648.29554511 575.67413877 668.85549661 637.53559028 713 684 C713.71414063 684.79019531 714.42828125 685.58039062 715.1640625 686.39453125 C734.76741153 707.35616477 765.71296088 716.90111102 793.72314453 718.16845703 C834.5799644 719.49576291 866.59333599 709.1060337 897 681 C897.80147461 680.26426758 897.80147461 680.26426758 898.61914062 679.51367188 C912.14763207 666.94806238 922.49621999 652.22448358 931.578125 636.21875 C933.15061024 633.76498183 934.31137948 633.01982158 937 632 C934.12919534 652.13550488 918.26082961 671.29202346 905.05859375 685.71875 C903.44781227 687.50375262 901.92623343 689.30277351 900.4375 691.1875 C897.25660182 694.85776714 893.72290064 697.89316655 890 701 C889.31679687 701.59425781 888.63359375 702.18851563 887.9296875 702.80078125 C859.96336776 726.33341616 824.75000256 739.12118831 788.28125 739.16796875 C787.2737822 739.17220352 786.26631439 739.17643829 785.22831726 739.18080139 C781.98550188 739.19064186 778.7428276 739.19073053 775.5 739.1875 C774.39330963 739.18689575 773.28661926 739.1862915 772.14639282 739.18566895 C756.33721728 739.16214787 740.70618179 738.96260608 725 737 C723.91170898 736.87109375 722.82341797 736.7421875 721.70214844 736.609375 C689.44247798 732.71114349 658.36620055 725.09833262 629 711 C628.20674316 710.62649414 627.41348633 710.25298828 626.59619141 709.86816406 C609.26415487 701.68103491 593.01844349 691.94107123 578 680 C577.03449219 679.23816406 576.06898438 678.47632813 575.07421875 677.69140625 C570.35118782 673.9014775 565.87646011 670.0368679 561.67578125 665.67578125 C559.8629262 663.8629262 557.95601038 662.21931185 556 660.5625 C551.9101369 657.02108597 548.46523952 653.14399777 545 649 C544.26136719 648.14921875 543.52273438 647.2984375 542.76171875 646.421875 C531.03328467 632.72934909 521.21711865 618.03993072 513 602 C512.47680176 600.9795459 511.95360352 599.9590918 511.41455078 598.90771484 C483.96949632 544.83343294 467.4899713 486.019589 451.15634155 427.86203003 C436.36066503 375.24039555 415.6998628 317.08719598 365.85009766 288.00927734 C358.36491288 283.92591051 350.53817134 281.30369076 342.24633789 279.41943359 C341.07639786 279.15262787 339.90645782 278.88582214 338.70106506 278.6109314 C337.80971359 278.40932404 336.91836212 278.20771667 336 278 C336.03603211 313.17731311 336.09302339 348.35452717 336.17792095 383.53175653 C336.18793779 387.6896277 336.19778202 391.84749926 336.20751953 396.00537109 C336.21043159 397.24694893 336.21043159 397.24694893 336.21340248 398.51360916 C336.24437987 411.89632355 336.26139121 425.27902081 336.27319422 438.66176428 C336.2856279 452.40509139 336.31317919 466.14832897 336.35461307 479.89159954 C336.37968516 488.36433736 336.39312189 496.83692658 336.39142957 505.30970202 C336.3913997 511.12859877 336.40612256 516.94734474 336.43216428 522.76618268 C336.44673762 526.117876 336.45288114 529.46900225 336.44580269 532.82075882 C336.41246143 551.04109225 336.74260992 565.83345029 348 581 C348.70962891 581.98419922 348.70962891 581.98419922 349.43359375 582.98828125 C356.91804612 592.55057025 368.50895958 598.47877145 380.3359375 600.59765625 C384.53477049 601.05872213 388.7202364 601.34206034 392.9375 601.5625 C393.71673828 601.60568359 394.49597656 601.64886719 395.29882812 601.69335938 C397.19907117 601.79828077 399.09951669 601.8995245 401 602 C401 604.97 401 607.94 401 611 C315.86 611 230.72 611 143 611 C143 608.03 143 605.06 143 602 C143.62342285 601.96559814 144.2468457 601.93119629 144.88916016 601.89575195 C163.82681214 600.77038015 178.7932621 598.36990265 193 585 C195.71417114 581.84299041 197.9258938 578.60428253 200 575 C200.39574219 574.35675781 200.79148437 573.71351563 201.19921875 573.05078125 C208.06871299 560.86955912 207.4346336 546.84451107 207.39872742 533.34086609 C207.40417308 531.25486809 207.41092721 529.16887317 207.41886932 527.08288318 C207.436837 521.37722683 207.43634462 515.67170103 207.43273985 509.96602309 C207.43211465 503.80325523 207.44874877 497.64053065 207.46325684 491.4777832 C207.48602419 480.80916912 207.49802902 470.14059333 207.50238609 459.47196007 C207.50699921 448.28763925 207.51780622 437.10335239 207.53681374 425.9190464 C207.53799386 425.22260759 207.53917399 424.52616877 207.54038988 423.80862575 C207.54641563 420.27149947 207.55255135 416.73437338 207.55872939 413.19724736 C207.60224564 388.16967453 207.63198276 363.14210251 207.65356445 338.11450195 C207.67455725 313.80654685 207.70182385 289.49861194 207.73754883 265.19067383 C207.73864831 264.44087354 207.73974778 263.69107326 207.74088058 262.91855176 C207.75192929 255.38847648 207.76310517 247.85840139 207.7743742 240.32832644 C207.79732587 224.98986618 207.81942899 209.65140474 207.84101868 194.3129425 C207.8420123 193.60776635 207.84300591 192.90259019 207.84402964 192.17604505 C207.91023979 145.11737966 207.95660988 98.05869139 208 51 C192.55158988 51.06087613 177.10333009 51.13861169 161.65510845 51.23571491 C154.48012969 51.28043355 147.30519792 51.31990124 140.13012695 51.34643555 C133.86688341 51.36961176 127.60379164 51.40322239 121.34066898 51.44870156 C118.03294012 51.47237349 114.72538696 51.48971181 111.41757774 51.49761391 C85.47691401 51.56579124 61.29536601 52.66212036 40 69 C38.81857422 69.88945312 38.81857422 69.88945312 37.61328125 70.796875 C21.0968471 84.28673745 12.70210739 105.07488635 10.21875 125.76953125 C9.80344559 130.00415296 9.62589686 134.25026095 9.4375 138.5 C9.39431641 139.4178125 9.35113281 140.335625 9.30664062 141.28125 C9.20166614 143.52070562 9.10044292 145.76033656 9 148 C6.03 148 3.06 148 0 148 C0 99.16 0 50.32 0 0 Z " fill="#39DBFE" transform="translate(338,371)"/>
<path d="M0 0 C2.14176866 0.00544389 4.28352625 0.00780874 6.4253006 0.00987244 C28.1417695 0.04245727 49.66564344 0.59542577 71.23212433 3.31785583 C72.447388 3.46770935 73.66265167 3.61756287 74.91474152 3.7719574 C125.59275576 10.20747767 174.39675241 24.74356351 218.23212433 51.31785583 C218.96511749 51.75774841 219.69811066 52.19764099 220.45331573 52.65086365 C232.31050302 59.80686623 243.45471969 67.6236844 254.23212433 76.31785583 C254.8173587 76.78594666 255.40259308 77.25403748 256.00556183 77.73631287 C271.50983147 90.23529061 286.35779507 104.5174691 298.04511261 120.68211365 C299.26074655 122.35729822 300.50735501 124.0057457 301.75946808 125.65379333 C308.53210494 134.69437925 313.96931219 144.33984553 319.23212433 154.31785583 C319.59580109 154.99606384 319.95947784 155.67427185 320.33417511 156.37303162 C330.56291881 175.51357416 337.42165122 196.22823197 341.54462433 217.50535583 C341.80215485 218.83349304 341.80215485 218.83349304 342.064888 220.1884613 C342.88004126 224.62524225 343.43244504 228.78467222 343.23212433 233.31785583 C342.28595245 232.95434021 341.33978058 232.59082458 340.36493683 232.21629333 C335.99942044 230.55041586 331.61947843 228.92526788 327.23212433 227.31785583 C326.50541534 227.0510199 325.77870636 226.78418396 325.02997589 226.50926208 C316.54816068 223.43331286 308.07877952 220.8700805 299.23212433 219.06785583 C298.49897003 218.91687439 297.76581573 218.76589294 297.01044464 218.6103363 C294.42431121 218.118716 291.83566279 217.70767431 289.23212433 217.31785583 C288.0759964 217.14270447 286.91986847 216.9675531 285.72870636 216.78709412 C270.98708923 214.76846272 256.10618143 214.87572238 241.25531769 214.71696472 C237.63421879 214.67632561 234.01326239 214.62551329 230.39228058 214.57566833 C223.33900054 214.4800194 216.28563006 214.39527577 209.23212433 214.31785583 C209.09571533 213.47223587 208.95930634 212.62661591 208.81876373 211.75537109 C208.3006735 208.55735183 207.77853363 205.36002501 207.25382233 202.16308594 C207.02938907 200.79072272 206.80647814 199.41810949 206.58524323 198.04522705 C204.57394085 185.57532328 201.84690486 173.42593704 198.23212433 161.31785583 C197.96673859 160.42808044 197.70135284 159.53830505 197.42792511 158.62156677 C186.77724346 123.59463882 168.61606436 91.73576491 143.23212433 65.31785583 C142.74453644 64.80835388 142.25694855 64.29885193 141.75458527 63.77391052 C108.97256373 29.71050704 64.73528233 10.1895023 17.30268097 9.15672302 C15.58260111 9.13722068 13.86244893 9.12344358 12.14228058 9.11473083 C11.20842026 9.1076712 10.27455994 9.10061157 9.31240082 9.09333801 C-67.58433887 8.6445701 -131.52609247 30.12260168 -186.76787567 84.31785583 C-189.22717492 86.8915411 -191.49514947 89.57980854 -193.76787567 92.31785583 C-194.63412567 93.29625427 -195.50037567 94.27465271 -196.39287567 95.28269958 C-209.21221722 109.78571193 -220.1338393 125.54329838 -229.76787567 142.31785583 C-230.17570282 143.02361755 -230.58352997 143.72937927 -231.00371552 144.45652771 C-272.79261472 217.70902064 -285.62864436 310.30209582 -275.76787567 393.31785583 C-275.63365204 394.46769958 -275.49942841 395.61754333 -275.36113739 396.80223083 C-269.39444906 446.49159542 -256.31122796 497.46226782 -227.76787567 539.31785583 C-227.03053192 540.40324646 -226.29318817 541.48863708 -225.53350067 542.60691833 C-219.50075305 551.33663027 -212.85894808 559.42991668 -205.76787567 567.31785583 C-205.10400848 568.06680115 -204.4401413 568.81574646 -203.75615692 569.58738708 C-181.65372091 593.1281595 -151.1233979 602.50286553 -119.76787567 604.31785583 C-119.76787567 605.96785583 -119.76787567 607.61785583 -119.76787567 609.31785583 C-171.97426903 608.06279445 -220.17516925 595.39697009 -260.76787567 561.31785583 C-261.57611786 560.63980896 -262.38436005 559.96176208 -263.21709442 559.26316833 C-276.6708102 547.52257426 -289.24465757 534.75198559 -299.76787567 520.31785583 C-300.61235351 519.19112313 -301.45740988 518.06482381 -302.30303192 516.93894958 C-330.14271792 479.41892584 -345.77609719 434.17768969 -352.76787567 388.31785583 C-352.93158661 387.29546814 -353.09529755 386.27308044 -353.26396942 385.2197113 C-355.84151869 368.52155895 -356.0521891 351.86388451 -356.08037567 335.00535583 C-356.08405151 333.95484039 -356.08772736 332.90432495 -356.09151459 331.82197571 C-356.12738583 312.1762383 -355.08982925 292.62395211 -351.64287567 273.25535583 C-351.43042206 272.05475525 -351.21796844 270.85415466 -350.99907684 269.61717224 C-341.77296568 219.72303617 -321.29903827 169.63939599 -289.12822723 129.99998474 C-287.93296429 128.5219945 -286.76600382 127.02120941 -285.60381317 125.51707458 C-271.69720519 107.57583342 -254.87829836 89.9823079 -236.76787567 76.31785583 C-235.46328198 75.29856709 -234.16000915 74.27758659 -232.85771942 73.25535583 C-223.77086043 66.1620848 -214.49647065 59.50040098 -204.76787567 53.31785583 C-204.08676727 52.88263611 -203.40565887 52.44741638 -202.70391083 51.99900818 C-162.76543387 26.61848509 -118.89632692 11.81676468 -72.26787567 4.56785583 C-71.01313446 4.36917908 -69.75839325 4.17050232 -68.46562958 3.96580505 C-45.74902395 0.60709749 -22.92946537 -0.0606753 0 0 Z " fill="#3ADBFE" transform="translate(584.7678756713867,149.68214416503906)"/>
<path d="M0 0 C9.24161812 -0.09338604 18.48306956 -0.16410821 27.72505951 -0.20724869 C32.01821259 -0.22797188 36.31103884 -0.25600356 40.60400391 -0.30175781 C44.76026032 -0.34576913 48.91620584 -0.3692513 53.07267761 -0.37950897 C54.64484033 -0.38680266 56.21698936 -0.40103956 57.78901672 -0.42292023 C72.68148635 -0.62163543 88.28010071 0.74760097 100 11 C106.89427419 18.9945725 108.49417397 26.77719506 108.30078125 37.1796875 C107.58239189 46.30416537 104.21631974 53.02883365 97.9140625 59.63671875 C93.21492276 63.44768329 87.96209846 65.91601817 82.4765625 68.40625 C78.98409715 69.89684875 78.98409715 69.89684875 76 72 C76.41660889 72.54188965 76.83321777 73.0837793 77.26245117 73.64208984 C84.6129372 83.21495647 91.9216465 92.80322832 98.9375 102.625 C112.45163461 122.1707607 112.45163461 122.1707607 133.47265625 131.58984375 C134.72369141 131.79287109 134.72369141 131.79287109 136 132 C136 134.31 136 136.62 136 139 C104.27755011 143.62876214 104.27755011 143.62876214 95.07000732 137.77246094 C88.12247784 131.74533171 83.95159411 123.08880286 80.01486206 114.92799377 C77.06701155 108.8446059 73.35115838 103.55942911 69.32739258 98.14746094 C67.342565 95.46326949 65.48598121 92.74952078 63.671875 89.94921875 C62.69885795 88.52800094 61.724937 87.10740144 60.75 85.6875 C60.29238281 84.94822266 59.83476563 84.20894531 59.36328125 83.44726562 C56.69931917 79.68658149 55.08786379 78.21406255 50.45898438 77.30322266 C46.95375159 77.04698961 43.51295768 76.9359459 40 77 C40.09231915 83.62053618 40.19963152 90.24070747 40.31738281 96.86083984 C40.35567157 99.11306236 40.39052461 101.365346 40.421875 103.61767578 C40.46752737 106.85471447 40.52552215 110.09133236 40.5859375 113.328125 C40.60326431 114.83925873 40.60326431 114.83925873 40.62094116 116.38092041 C40.64081085 117.32159363 40.66068054 118.26226685 40.68115234 119.23144531 C40.69447601 120.05751282 40.70779968 120.88358032 40.7215271 121.73468018 C41.03309794 124.26924491 41.59147742 125.87150899 43 128 C46.75231766 129.42588071 50.41214839 130.09208956 54.375 130.5625 C58 131 58 131 59 132 C59 134.31 59 136.62 59 139 C39.53 139 20.06 139 0 139 C0 132 0 132 1 131 C2.95121093 130.62723135 4.9114913 130.30135385 6.875 130 C10.06290893 129.50837067 12.93717173 129.02094276 16 128 C18.49727312 122.80870127 18.28324089 117.58883541 18.25878906 111.95898438 C18.2622937 110.9631282 18.26579834 109.96727203 18.26940918 108.9412384 C18.27819129 105.65867077 18.27238969 102.37631972 18.265625 99.09375 C18.26697266 96.80741332 18.26891403 94.52107691 18.27142334 92.23474121 C18.27436984 87.44666817 18.27009214 82.65866982 18.26074219 77.87060547 C18.24934801 71.73718062 18.25591001 65.60393082 18.26788712 59.47051239 C18.27511846 54.75045455 18.2728119 50.03043812 18.26763153 45.31037903 C18.26629857 43.04897542 18.26793037 40.78756803 18.27259064 38.52616882 C18.27767672 35.36434995 18.26991613 32.2028135 18.25878906 29.04101562 C18.26283752 28.10888748 18.26688599 27.17675934 18.27105713 26.21638489 C18.239943 21.43733785 17.97940963 17.44604509 16 13 C11.67690557 9.09526954 5.56715105 8.82873527 0 8 C0 5.36 0 2.72 0 0 Z M40 9 C40 28.14 40 47.28 40 67 C60.32742491 67.66132833 60.32742491 67.66132833 76.20703125 58.109375 C82.49104331 50.71641964 84.5340343 41.68948232 83.77734375 32.2109375 C82.65642518 24.310094 80.0399473 18.0839705 73.625 13.125 C63.96609374 6.32094288 50.78182562 9 40 9 Z " fill="#3EB8FE" transform="translate(820,1190)"/>
<path d="M0 0 C0.33 33.33 0.66 66.66 1 101 C20.67194121 85.57901779 20.67194121 85.57901779 33 66 C29.14522751 63.43015167 25.47959418 62.14185734 21 61 C20.95745644 59.00045254 20.95919217 56.99958364 21 55 C22 54 22 54 25.96899414 53.88647461 C27.74105607 53.8866338 29.5131226 53.89233215 31.28515625 53.90234375 C32.21597519 53.9037587 33.14679413 53.90517365 34.1058197 53.90663147 C37.09141191 53.91224828 40.07693029 53.9248036 43.0625 53.9375 C45.08137913 53.94251284 47.10025943 53.94707612 49.11914062 53.95117188 C54.07945572 53.96222317 59.03971532 53.97949905 64 54 C64 56.31 64 58.62 64 61 C62.74896484 61.54527344 62.74896484 61.54527344 61.47265625 62.1015625 C45.82138261 69.09354041 33.89469281 78.832226 23 92 C23.77601563 93.00675781 24.55203125 94.01351563 25.3515625 95.05078125 C32.02509597 103.73159661 38.60653194 112.47142851 45.06494141 121.3137207 C54.92620061 136.24019915 54.92620061 136.24019915 70.2421875 143.73828125 C71.11230469 143.86783203 71.11230469 143.86783203 72 144 C72 146.31 72 148.62 72 151 C67.89372318 151.29947601 63.79175202 151.51555839 59.67700195 151.65917969 C58.28232084 151.71908286 56.88837954 151.80066059 55.49633789 151.90527344 C50.81884593 152.24765175 46.5783948 152.23497218 42 151 C38.02477309 147.54707344 35.62224493 143.52566752 33 139 C31.82027664 137.30323448 30.62478774 135.61726668 29.41015625 133.9453125 C28.29235221 132.33987583 27.1764729 130.73309737 26.0625 129.125 C24.86382237 127.40326898 23.6645996 125.68191736 22.46484375 123.9609375 C21.88331543 123.1265918 21.30178711 122.29224609 20.70263672 121.43261719 C16.84653661 115.92327083 12.9240208 110.46107963 9 105 C5.60852047 106.45349123 3.3796128 108.17353752 1 111 C0.40659007 113.48121399 0.40659007 113.48121399 0.50390625 116.17578125 C0.50326172 117.16900391 0.50261719 118.16222656 0.50195312 119.18554688 C0.53192383 120.73338867 0.53192383 120.73338867 0.5625 122.3125 C0.55541016 123.33279297 0.54832031 124.35308594 0.54101562 125.40429688 C0.59035618 131.27582308 0.82006574 135.97189881 4 141 C6.66167317 142.46717221 6.66167317 142.46717221 9.6875 142.9375 C11.17830078 143.26041016 11.17830078 143.26041016 12.69921875 143.58984375 C13.83810547 143.79287109 13.83810547 143.79287109 15 144 C15 146.31 15 148.62 15 151 C-0.84 151 -16.68 151 -33 151 C-33 148.69 -33 146.38 -33 144 C-32.31292969 143.89042969 -31.62585938 143.78085938 -30.91796875 143.66796875 C-30.01691406 143.50941406 -29.11585938 143.35085938 -28.1875 143.1875 C-27.29417969 143.03667969 -26.40085937 142.88585938 -25.48046875 142.73046875 C-22.74247491 141.9241619 -21.68354217 141.27835833 -20 139 C-19.07082308 136.04527637 -18.87259279 133.36347951 -18.86628723 130.27616882 C-18.86202225 129.32998688 -18.85775726 128.38380493 -18.85336304 127.40895081 C-18.85404282 125.86206825 -18.85404282 125.86206825 -18.85473633 124.28393555 C-18.85137772 123.19244202 -18.8480191 122.10094849 -18.84455872 120.97637939 C-18.83504925 117.36314764 -18.83310554 113.74996224 -18.83203125 110.13671875 C-18.82881848 107.62571697 -18.82545439 105.11471537 -18.82194519 102.60371399 C-18.8159538 97.33712463 -18.81406247 92.07054703 -18.81469727 86.80395508 C-18.81529753 80.72711146 -18.80475464 74.65035675 -18.7889536 68.57353562 C-18.77427175 62.71733538 -18.77071005 56.86117017 -18.77130699 51.00495338 C-18.77012735 48.51829478 -18.76570649 46.0316355 -18.75797462 43.54498863 C-18.74816713 40.06466697 -18.75105604 36.58457346 -18.75708008 33.10424805 C-18.75146057 32.0790657 -18.74584106 31.05388336 -18.74005127 29.99763489 C-18.76383806 24.58389784 -19.20998143 20.11630218 -21 15 C-21.33 14.01 -21.66 13.02 -22 12 C-26.95 11.01 -31.9 10.02 -37 9 C-37 6.69 -37 4.38 -37 2 C-33.98561533 0.49280767 -30.81419013 0.62028987 -27.5 0.4375 C-26.84902344 0.39431641 -26.19804688 0.35113281 -25.52734375 0.30664062 C-17.00383508 -0.18781706 -8.57180724 0 0 0 Z " fill="#3EB8FE" transform="translate(741,1178)"/>
<path d="M0 0 C40.26 0 80.52 0 122 0 C122 12.54 122 25.08 122 38 C119.36 38 116.72 38 114 38 C113.79246094 37.40574219 113.58492188 36.81148437 113.37109375 36.19921875 C110.75933225 29.17259681 107.31399184 23.12029577 103 17 C102.59652344 16.35417969 102.19304687 15.70835938 101.77734375 15.04296875 C98.92763897 11.27696018 95.93183956 10.60161026 91.31030273 9.93579102 C88.62897961 9.62217335 85.94827018 9.38138597 83.25601196 9.18414307 C80.91083657 8.99272219 78.57750172 8.74430123 76.23950195 8.47973633 C75.44179886 8.3898494 74.64409576 8.29996246 73.82221985 8.20735168 C73.2208873 8.13892563 72.61955475 8.07049957 72 8 C72.01381019 22.90794078 72.05605726 37.8155994 72.13209057 52.72335339 C72.16673308 59.6454387 72.19209508 66.56732503 72.19555664 73.48950195 C72.19892253 80.16813127 72.22822027 86.84618433 72.27343178 93.524683 C72.28643513 96.07436523 72.2907045 98.62410726 72.28615379 101.17381859 C72.28126836 104.7416749 72.30725226 108.30805712 72.34057617 111.87573242 C72.32763771 113.46177025 72.32763771 113.46177025 72.31443787 115.07984924 C72.40242298 121.03129207 72.40242298 121.03129207 75.33418274 126.11714172 C79.70153581 129.20178935 84.17056327 129.93871241 89.375 130.5625 C93 131 93 131 94 132 C94 134.31 94 136.62 94 139 C72.22 139 50.44 139 28 139 C28 136.69 28 134.38 28 132 C31.82414468 130.08792766 36.40994651 130.12026761 40.6171875 129.59765625 C43.55134213 129.07926634 45.53107138 128.61613443 48 127 C49.21066677 124.57866646 49.13793598 123.02397009 49.15821838 120.31771851 C49.17290161 118.83691048 49.17290161 118.83691048 49.18788147 117.32618713 C49.19363693 116.23934128 49.1993924 115.15249542 49.20532227 114.03271484 C49.21522186 112.89125504 49.22512146 111.74979523 49.23532104 110.57374573 C49.26700665 106.78616436 49.29172138 102.99857044 49.31640625 99.2109375 C49.33696968 96.59062364 49.35796598 93.97031315 49.37937927 91.3500061 C49.42932354 85.14876233 49.47425592 78.94749269 49.51740164 72.7461983 C49.56675921 65.68700521 49.62168282 58.6278589 49.67708123 51.56871104 C49.79092788 37.04585164 49.89776107 22.52294569 50 8 C46.43570114 8.24981936 42.87422904 8.52854546 39.3125 8.8125 C37.80139648 8.91788086 37.80139648 8.91788086 36.25976562 9.02539062 C29.98833843 9.54283511 25.74607846 10.2064731 21.19140625 14.83984375 C16.53716499 20.83343502 13.20688573 27.13944879 10 34 C9.33776667 35.3355408 8.67297822 36.66984116 8 38 C5.36 38 2.72 38 0 38 C0 25.46 0 12.92 0 0 Z " fill="#42B9FE" transform="translate(307,1190)"/>
<path d="M0 0 C1.90926502 1.90926502 1.13511191 5.34380532 1.1418457 7.87133789 C1.14532013 8.59015137 1.14879456 9.30896484 1.15237427 10.04956055 C1.15974557 11.61666649 1.1650836 13.18378298 1.16866493 14.75090218 C1.17581918 17.23583081 1.19148067 19.72056066 1.21000671 22.20542908 C1.26250441 29.27291016 1.3103951 36.34028742 1.32592773 43.40795898 C1.33604459 47.72762519 1.36547036 52.04679894 1.40724754 56.36627007 C1.41951838 58.00915223 1.42468598 59.65210413 1.42244911 61.29503059 C1.25438722 73.25302791 1.25438722 73.25302791 6 84 C10.56683946 87.82463338 15.05103744 87.50123908 20.77734375 87.33984375 C28.0757384 86.57019486 32.82121119 83.04230287 37.51358032 77.5274353 C40.44214877 72.54784078 39.93177807 67.11501412 39.82421875 61.48828125 C39.82380081 60.20189255 39.82338287 58.91550385 39.82295227 57.59013367 C39.81975134 54.88062344 39.79298746 52.1727517 39.74780273 49.46362305 C39.69096186 45.99990128 39.6829627 42.5382063 39.69121075 39.07409382 C39.6946866 35.75357104 39.66502506 32.43369033 39.63671875 29.11328125 C39.63474739 27.25380608 39.63474739 27.25380608 39.63273621 25.35676575 C39.61044449 24.20174057 39.58815277 23.04671539 39.56518555 21.85668945 C39.55295456 20.84379349 39.54072357 19.83089752 39.52812195 18.78730774 C38.86187598 15.27101279 37.44308847 13.56792862 35 11 C32.43106162 9.71553081 30.23423663 9.67022856 27.375 9.4375 C26.37210938 9.35371094 25.36921875 9.26992187 24.3359375 9.18359375 C23.17964844 9.09271484 23.17964844 9.09271484 22 9 C22 6.36 22 3.72 22 1 C27.10826806 0.69018967 32.21687586 0.38718085 37.32592773 0.09057617 C39.06529728 -0.01137622 40.80455737 -0.11521384 42.54370117 -0.22094727 C45.03798741 -0.37226682 47.53258382 -0.51688713 50.02734375 -0.66015625 C50.80963852 -0.70906509 51.59193329 -0.75797394 52.39793396 -0.80836487 C54.26349337 -0.91221344 56.13194483 -0.9617076 58 -1 C59.95251862 0.95251862 59.15394138 4.71123933 59.15771484 7.37792969 C59.16279556 8.1503299 59.16787628 8.9227301 59.17311096 9.71853638 C59.18383862 11.40187178 59.19244934 13.08522165 59.19923019 14.76857758 C59.21098791 17.43329902 59.23043376 20.09785609 59.25234985 22.76251221 C59.31406211 30.34096804 59.36798183 37.91940927 59.40136719 45.49804688 C59.42231938 50.12885006 59.45763185 54.75935756 59.50212479 59.38999176 C59.51628614 61.15537279 59.52500753 62.92080617 59.52817917 64.68624115 C59.53309091 67.1593056 59.55625653 69.63158698 59.58349609 72.10449219 C59.58048996 72.83300385 59.57748383 73.5615155 59.5743866 74.31210327 C59.64625763 78.70847041 60.28275223 81.51398917 63 85 C66.45058686 87.30039124 68.94095502 87.4738275 73 88 C74 89 74 89 74.125 92 C74 95 74 95 73 96 C68.60908899 96.4932497 64.19846778 96.75266622 59.78979492 97.03979492 C57.57443567 97.18670848 55.36064779 97.34983314 53.14648438 97.51367188 C51.74485851 97.60777184 50.34316721 97.70090309 48.94140625 97.79296875 C47.65951416 97.8808667 46.37762207 97.96876465 45.05688477 98.05932617 C42 98 42 98 40 96 C39.5859375 93.6171875 39.5859375 93.6171875 39.375 90.875 C39.26285156 89.50988281 39.26285156 89.50988281 39.1484375 88.1171875 C39.09945313 87.41851563 39.05046875 86.71984375 39 86 C38.53851562 86.44730469 38.07703125 86.89460938 37.6015625 87.35546875 C28.54717926 95.74777258 18.1097769 100.63490556 5.65234375 100.30859375 C-0.75524323 99.56308658 -6.93572248 97.67160426 -11.4375 92.875 C-19.26882853 82.28233597 -19.12904423 70.10037643 -19.140625 57.484375 C-19.15893314 55.07551123 -19.17850156 52.66665676 -19.19921875 50.2578125 C-19.22829486 46.48974557 -19.25000356 42.72228847 -19.25048828 38.95410156 C-19.2538138 35.29698574 -19.28828124 31.64125139 -19.328125 27.984375 C-19.3210553 26.85723083 -19.3139856 25.73008667 -19.30670166 24.56878662 C-19.35400012 18.23637036 -19.35400012 18.23637036 -22.38842773 12.82250977 C-24.89009346 11.07669929 -26.8904181 10.01615009 -29.8125 9.1875 C-30.60269531 8.95417969 -31.39289062 8.72085937 -32.20703125 8.48046875 C-32.79871094 8.32191406 -33.39039063 8.16335938 -34 8 C-34.04254356 6.00045254 -34.04080783 3.99958364 -34 2 C-31.34067218 -0.65932782 -24.38191667 0.25857608 -20.75415039 0.01513672 C-18.70588229 -0.12375352 -16.65869654 -0.27427056 -14.61132812 -0.42578125 C-12.67483398 -0.55919922 -12.67483398 -0.55919922 -10.69921875 -0.6953125 C-9.51158936 -0.77797363 -8.32395996 -0.86063477 -7.1003418 -0.94580078 C-4.43265208 -0.99243651 -2.49442496 -0.88247739 0 0 Z " fill="#42B9FE" transform="translate(988,1232)"/>
<path d="M0 0 C5.97813752 4.33304808 8.23321932 11.30889985 9.69949341 18.23400879 C10.46897402 23.49398117 10.26801842 28.77147867 10.1796875 34.07421875 C10.15928135 36.61978988 10.13910588 39.16536287 10.11914062 41.7109375 C10.07552792 45.69620267 10.02710589 49.68136512 9.97338867 53.66650391 C9.92518812 57.53157098 9.89527849 61.39646105 9.8671875 65.26171875 C9.84542953 66.45448425 9.82367157 67.64724976 9.80125427 68.87615967 C9.79123131 70.54379364 9.79123131 70.54379364 9.78100586 72.24511719 C9.76831161 73.21946716 9.75561737 74.19381714 9.74253845 75.19769287 C10.1570305 78.4255627 11.18670381 80.28481939 13.08984375 82.90234375 C17.1415766 85.21761967 21.51968668 85.43758201 26.08984375 85.90234375 C26.08984375 87.88234375 26.08984375 89.86234375 26.08984375 91.90234375 C18.27328807 95.98827059 11.89657147 96.49531544 3.08984375 95.90234375 C-3.31374737 93.84404661 -6.27836965 89.35002365 -9.91015625 83.90234375 C-10.81894531 84.69898438 -10.81894531 84.69898438 -11.74609375 85.51171875 C-21.72174666 93.92196151 -31.79385566 97.93990186 -44.91015625 96.90234375 C-51.99981116 95.62714179 -57.16022621 92.27814692 -61.91015625 86.90234375 C-65.76240756 80.31623668 -66.63737138 72.74672257 -65.28515625 65.27734375 C-62.99302955 56.87780849 -58.85187536 52.03947261 -51.37109375 47.6171875 C-44.96302522 44.44208357 -38.24709593 42.14433276 -31.49755859 39.80810547 C-27.05134133 38.25163575 -22.63924173 36.60309272 -18.22265625 34.96484375 C-16.61473224 34.37199183 -15.00667338 33.7795054 -13.3984375 33.1875 C-12.24730469 32.76339844 -11.09617187 32.33929687 -9.91015625 31.90234375 C-9.59881445 22.49290254 -9.68761256 14.54718314 -15.91015625 6.90234375 C-19.93046733 3.89603653 -22.93714757 3.49519068 -27.91015625 3.52734375 C-29.10640625 3.51960938 -30.30265625 3.511875 -31.53515625 3.50390625 C-35.10468472 3.92530892 -37.01614063 4.83049166 -39.91015625 6.90234375 C-39.7915625 7.92714844 -39.67296875 8.95195313 -39.55078125 10.0078125 C-39.41941627 11.3683784 -39.28927223 12.72906258 -39.16015625 14.08984375 C-39.03833984 15.10014648 -39.03833984 15.10014648 -38.9140625 16.13085938 C-38.5878337 19.84624294 -38.7395489 21.63735028 -40.78125 24.80859375 C-44.02929518 28.00300149 -45.77285076 28.79895234 -50.34765625 29.21484375 C-54.18757508 28.87800877 -55.95902388 28.34756772 -58.91015625 25.90234375 C-61.38739969 22.07387662 -61.07901965 18.45915269 -60.4375 14.10546875 C-58.81023474 7.30711609 -53.55904673 3.42669546 -47.91015625 -0.09765625 C-33.55964434 -7.52033482 -14.20972669 -8.16550756 0 0 Z M-37.93359375 53.81640625 C-43.62942486 60.02369975 -45.32621232 64.89907837 -45.16796875 73.30859375 C-44.70992596 77.91678182 -42.39754827 80.99618373 -38.91015625 83.90234375 C-32.31485856 86.10077631 -25.79877788 85.71048888 -19.53515625 82.71484375 C-15.63535488 80.66060055 -12.64462988 78.38301226 -9.91015625 74.90234375 C-9.16621025 71.94478641 -9.11926187 69.06704149 -9.09765625 66.02734375 C-9.07324463 65.19614014 -9.04883301 64.36493652 -9.02368164 63.50854492 C-8.95754169 60.97269543 -8.9280302 58.43895572 -8.91015625 55.90234375 C-8.89758789 54.73904541 -8.89758789 54.73904541 -8.88476562 53.55224609 C-8.84416718 49.33462091 -8.85341698 45.11996285 -8.91015625 40.90234375 C-17.75154653 40.90234375 -31.63497874 47.85825691 -37.93359375 53.81640625 Z " fill="#42B9FE" transform="translate(584.91015625,1235.09765625)"/>
<path d="M0 0 C5.93658723 4.58243868 8.99883722 10.34450805 10.0078125 17.76953125 C10.14273082 21.74212611 9.7075696 25.09115301 7.703125 28.52734375 C4.88490412 31.50660582 3.36131493 32.44357412 -0.734375 32.96484375 C-5.45660116 32.38492124 -8.63240945 31.02536275 -12.171875 27.83984375 C-15.30610124 21.39726759 -12.67059505 13.1996983 -11.296875 6.52734375 C-16.84486248 2.67938179 -21.7446897 2.87746668 -28.296875 3.52734375 C-34.97695798 5.83500878 -38.76477499 10.20189285 -41.984375 16.33984375 C-45.3861372 23.54859375 -46.73803497 30.61044327 -47.296875 38.52734375 C-47.35101562 39.26339844 -47.40515625 39.99945312 -47.4609375 40.7578125 C-47.93242663 53.55231307 -45.39412267 67.77207312 -36.52734375 77.4609375 C-30.19406462 83.21470089 -24.30898607 84.04349833 -15.875 83.90234375 C-5.50735346 82.81577817 0.79793046 76.23360384 7.140625 68.58984375 C7.65625 67.90921875 8.171875 67.22859375 8.703125 66.52734375 C10.683125 67.84734375 12.663125 69.16734375 14.703125 70.52734375 C13.18177306 77.94393447 7.87688485 83.16748507 1.9765625 87.5546875 C-9.61150109 95.1044865 -20.33453027 98.3544012 -34.2734375 96.03125 C-44.35111824 93.51892677 -52.90412586 88.85610838 -59.296875 80.52734375 C-68.62135647 64.79687009 -71.84417393 47.48917452 -67.296875 29.52734375 C-62.68542419 14.83764157 -54.21655097 4.59765181 -40.81640625 -2.8515625 C-28.34964202 -8.39878937 -11.40470116 -7.31219785 0 0 Z " fill="#41B9FE" transform="translate(688.296875,1235.47265625)"/>
<path d="M0 0 C6.27 0 12.54 0 19 0 C19 9.9 19 19.8 19 30 C27.91 30 36.82 30 46 30 C46 33.3 46 36.6 46 40 C37.09 40 28.18 40 19 40 C19.08877415 47.79109991 19.17938753 55.58181284 19.28729248 63.372612 C19.33703742 67.00138179 19.38352552 70.63012357 19.421875 74.2590332 C19.45900755 77.76049983 19.50543914 81.26173556 19.55806351 84.7630024 C19.58535473 86.7352296 19.60325052 88.70757969 19.62094116 90.67991638 C19.51572349 102.19811213 19.51572349 102.19811213 23.875 112.5 C30.65625827 117.28677054 41.26506359 115.16753757 49 114 C49 116.64 49 119.28 49 122 C37.32358784 126.92897726 25.07929843 130.62808374 12.36328125 127.3125 C6.8927129 124.81166875 3.16531591 120.8540146 0.88137817 115.26034546 C-0.10663908 111.60552659 -0.24033125 108.49440715 -0.22705078 104.70947266 C-0.22734283 104.00633942 -0.22763489 103.30320618 -0.22793579 102.57876587 C-0.22655162 100.27373558 -0.21103397 97.96903574 -0.1953125 95.6640625 C-0.19157912 94.05838192 -0.18873368 92.45269906 -0.18673706 90.84701538 C-0.17912621 86.63512811 -0.15949979 82.42338029 -0.1373291 78.21154785 C-0.1168156 73.90797817 -0.1077236 69.6043858 -0.09765625 65.30078125 C-0.07625132 56.86711659 -0.04109013 48.43359175 0 40 C-5.61 40 -11.22 40 -17 40 C-17 36.7 -17 33.4 -17 30 C-11.39 30 -5.78 30 0 30 C0 20.1 0 10.2 0 0 Z " fill="#40B8FE" transform="translate(1143,1203)"/>
<path d="M0 0 C3.6464823 3.22247273 6.32241065 5.81937454 7.03515625 10.80859375 C7.24753008 17.02283658 6.28331382 20.58690368 2 25.1875 C-1.39501427 26.93088571 -4.61768783 26.91857078 -8.3125 26.375 C-11.20826457 25.11597193 -12.7712704 24.22341397 -14.46875 21.5625 C-15.47344092 18.95774577 -15.3410838 17.36936981 -14.9375 14.625 C-14.82664062 13.82578125 -14.71578125 13.0265625 -14.6015625 12.203125 C-14.50617188 11.59984375 -14.41078125 10.9965625 -14.3125 10.375 C-16.08694057 10.96848861 -17.85695553 11.57522001 -19.625 12.1875 C-20.61113281 12.52394531 -21.59726562 12.86039063 -22.61328125 13.20703125 C-25.21743499 14.33386478 -26.42076567 15.34356837 -28.3125 17.375 C-28.9725 17.375 -29.6325 17.375 -30.3125 17.375 C-30.621875 17.99375 -30.93125 18.6125 -31.25 19.25 C-31.9375 20.625 -32.625 22 -33.3125 23.375 C-33.41905322 25.29915153 -33.46133758 27.2269924 -33.47363281 29.15405273 C-33.48324036 30.36548447 -33.4928479 31.5769162 -33.50274658 32.82505798 C-33.50699646 34.13962479 -33.51124634 35.45419159 -33.515625 36.80859375 C-33.52137623 38.1661835 -33.52713397 39.52377322 -33.53289795 40.88136292 C-33.54340614 43.72861103 -33.54925019 46.57583092 -33.55273438 49.4230957 C-33.5582231 53.07289123 -33.5822594 56.72231442 -33.61070633 60.37199306 C-33.62932114 63.17638747 -33.63453764 65.98069192 -33.63607025 68.7851429 C-33.64057295 70.78547095 -33.65922369 72.78575086 -33.67803955 74.78599548 C-33.67503845 76.00057938 -33.67203735 77.21516327 -33.66894531 78.46655273 C-33.67259094 79.53751694 -33.67623657 80.60848114 -33.67999268 81.7118988 C-33.52662814 84.38198547 -33.52662814 84.38198547 -31.99334717 86.17396545 C-27.54721716 89.35090851 -21.59970784 89.7275868 -16.3125 90.375 C-16.3125 92.685 -16.3125 94.995 -16.3125 97.375 C-33.1425 97.375 -49.9725 97.375 -67.3125 97.375 C-67.3125 95.065 -67.3125 92.755 -67.3125 90.375 C-66.69761719 90.25382812 -66.08273437 90.13265625 -65.44921875 90.0078125 C-64.64097656 89.84023437 -63.83273437 89.67265625 -63 89.5 C-62.19949219 89.33757812 -61.39898437 89.17515625 -60.57421875 89.0078125 C-58.05948882 88.43021001 -58.05948882 88.43021001 -55.3125 86.375 C-54.21574041 83.08472124 -54.17230436 80.62771189 -54.15136719 77.1628418 C-54.14175964 75.88108566 -54.1321521 74.59932953 -54.12225342 73.2787323 C-54.117405 71.8772296 -54.11312628 70.47572482 -54.109375 69.07421875 C-54.10362064 67.63556416 -54.09786294 66.19690957 -54.09210205 64.758255 C-54.08159961 61.74125817 -54.0757522 58.72428793 -54.07226562 55.70727539 C-54.06678657 51.85042683 -54.04276832 47.99393231 -54.01429367 44.13719463 C-53.99562383 41.1645456 -53.99045936 38.19198104 -53.98892975 35.21927834 C-53.98591179 33.79797241 -53.97791227 32.37666767 -53.96474457 30.95541954 C-53.94759725 28.96213194 -53.95142163 26.96869777 -53.95605469 24.9753418 C-53.95058624 23.2768232 -53.95058624 23.2768232 -53.94500732 21.54399109 C-54.36609653 17.91282232 -55.45056879 15.50220021 -57.3125 12.375 C-60.5279728 10.07823372 -64.5296688 9.39345455 -68.3125 8.375 C-68.3125 6.065 -68.3125 3.755 -68.3125 1.375 C-63.79269084 1.04005867 -59.27219457 0.71892072 -54.75048828 0.41064453 C-53.21180741 0.30377816 -51.6733853 0.19311681 -50.13525391 0.07861328 C-47.92667445 -0.08514342 -45.71752971 -0.23531348 -43.5078125 -0.3828125 C-42.47335495 -0.46391769 -42.47335495 -0.46391769 -41.41799927 -0.54666138 C-39.71930698 -0.65325531 -38.01437295 -0.64837088 -36.3125 -0.625 C-33.72323669 1.96426331 -33.93851957 3.40205279 -33.6875 7 C-33.61273438 8.00289062 -33.53796875 9.00578125 -33.4609375 10.0390625 C-33.41195312 10.80992188 -33.36296875 11.58078125 -33.3125 12.375 C-32.83941406 11.85550781 -32.36632812 11.33601563 -31.87890625 10.80078125 C-23.74181426 2.21955949 -12.0141212 -5.89371983 0 0 Z " fill="#40B8FE" transform="translate(504.3125,1231.625)"/>
<path d="M0 0 C0.00586624 1.01619919 0.01173248 2.03239838 0.01777649 3.07939148 C0.07500052 12.65819925 0.14776051 22.23677992 0.23571491 31.81535625 C0.28043393 36.73976186 0.31968673 41.66408444 0.34643555 46.58862305 C0.37245317 51.34148404 0.41284476 56.0940258 0.46318626 60.84668922 C0.47986539 62.65951376 0.49137316 64.47239352 0.49761391 66.28528404 C0.50724365 68.8255392 0.53528892 71.36497572 0.56762695 73.9050293 C0.56619186 74.65381348 0.56475677 75.40259766 0.5632782 76.17407227 C0.64295403 80.60222478 1.23680739 83.49408914 4 87 C6.46038085 88.23015243 6.46038085 88.23015243 9.1875 88.8125 C10.08855469 89.04582031 10.98960938 89.27914063 11.91796875 89.51953125 C12.60503906 89.67808594 13.29210938 89.83664062 14 90 C14 92.31 14 94.62 14 97 C-1.51 97 -17.02 97 -33 97 C-33 94.69 -33 92.38 -33 90 C-27.06 89.01 -27.06 89.01 -21 88 C-19.87753962 84.63261886 -19.8524578 82.04661026 -19.82299805 78.49658203 C-19.81642685 77.84093262 -19.80985565 77.1852832 -19.80308533 76.50976562 C-19.7833925 74.3424467 -19.77169982 72.17519687 -19.76171875 70.0078125 C-19.75764322 69.26659023 -19.7535677 68.52536797 -19.74936867 67.76168442 C-19.72852671 63.83966095 -19.71421599 59.9176723 -19.70483398 55.99560547 C-19.69376328 51.94799518 -19.65935112 47.9009337 -19.61966228 43.85351753 C-19.59350459 40.73765041 -19.58514303 37.62191438 -19.58155251 34.50594711 C-19.57668561 33.01401938 -19.56506854 31.52209755 -19.54651451 30.03027725 C-19.52213536 27.94047862 -19.52308447 25.85210467 -19.5300293 23.76220703 C-19.52416306 22.57434601 -19.51829681 21.38648499 -19.51225281 20.16262817 C-20.09938463 16.35557468 -21.32556303 14.72049041 -24 12 C-27.77613281 10.06090477 -31.91460024 9.12148229 -36 8 C-36 5.69 -36 3.38 -36 1 C-31.67723449 0.68831529 -27.35396678 0.38544475 -23.0300293 0.09057617 C-21.56046084 -0.01086822 -20.09105381 -0.11468083 -18.62182617 -0.22094727 C-16.50477923 -0.37364994 -14.38728985 -0.5177071 -12.26953125 -0.66015625 C-10.99698486 -0.74918213 -9.72443848 -0.83820801 -8.41333008 -0.92993164 C-5.36257539 -0.9925571 -2.95341718 -0.65144706 0 0 Z " fill="#3FB8FE" transform="translate(1106,1232)"/>
<path d="M0 0 C3.92785139 2.29427179 6.55325195 4.65975586 8 9 C8.34831525 14.39888643 8.43100532 17.58870745 5 22 C4.46375 22.7425 3.9275 23.485 3.375 24.25 C-0.17986842 26.86937673 -3.63021237 27.32621678 -8 27 C-11.92237098 25.03881451 -14.84693104 22.85286024 -17 19 C-18.40925208 14.12181973 -17.87715796 10.6928949 -16 6 C-11.15741452 0.4310267 -7.30359519 -1.28676718 0 0 Z " fill="#41B9FE" transform="translate(1100,1181)"/>
<path d="M0 0 C0.66 0.33 1.32 0.66 2 1 C-1.96 4.96 -5.92 8.92 -10 13 C-10 8.41771462 -7.08388033 6.1816619 -4 3 C-1.625 1.0625 -1.625 1.0625 0 0 Z " fill="#69C6FC" transform="translate(640,1237)"/>
<path d="M0 0 C0.66 0.33 1.32 0.66 2 1 C-0.31 3.31 -2.62 5.62 -5 8 C-5.66 7.67 -6.32 7.34 -7 7 C-4.66666667 4.66666667 -2.33333333 2.33333333 0 0 Z " fill="#62C4FC" transform="translate(530,1285)"/>
</svg>
